<svg width="76" height="40" viewBox="0 0 76 40" fill="none" xmlns="http://www.w3.org/2000/svg">
<path id="Vector 3" d="M1.46868 25.8474C0.843791 27.0626 0.843759 29.9793 1.46867 34.5974C2.09359 39.2155 75 41.8891 75 33.8682C75 25.8474 72.917 25.8474 72.917 25.8474C72.917 25.8474 70.945 29.9571 68.126 29.9793C64.6328 30.0069 66.6678 22.6876 66.6678 22.6876C66.6678 22.6876 62.8967 27.391 58.9606 27.5488C54.3408 27.7339 54.7944 19.7709 54.7944 19.7709C54.7944 19.7709 52.5031 22.6876 49.7952 22.6876C45.1108 22.6876 47.0872 12.7223 47.0872 12.7223C47.0872 12.7223 41.4869 21.1755 41.7416 18.6C42.3665 12.2805 36.672 3 36.672 3C36.672 3 30.3059 15.1972 31.764 18.6C32.7577 20.9188 26.4651 12.7223 26.4651 12.7223C26.4651 12.7223 29.0837 23.4294 24.5904 22.6876C21.7991 22.2268 18.5496 19.7709 18.5496 19.7709C18.5496 19.7709 20.8508 26.8089 16.6748 27.5488C12.7307 28.2475 9.17587 22.6876 9.17587 22.6876C9.17587 22.6876 11.0786 29.8139 7.50947 29.9793C4.5185 30.118 2.09356 24.6321 1.46868 25.8474Z" fill="#FDA339" stroke="#2F4D2A" stroke-width="2"/>
</svg>
